G04 #@! TF.GenerationSoftware,KiCad,Pcbnew,5.1.6-c6e7f7d~86~ubuntu18.04.1*
G04 #@! TF.CreationDate,2020-05-28T23:24:45+02:00*
G04 #@! TF.ProjectId,keyboard-layout,6b657962-6f61-4726-942d-6c61796f7574,rev?*
G04 #@! TF.SameCoordinates,Original*
G04 #@! TF.FileFunction,Paste,Bot*
G04 #@! TF.FilePolarity,Positive*
%FSLAX46Y46*%
G04 Gerber Fmt 4.6, Leading zero omitted, Abs format (unit mm)*
G04 Created by KiCad (PCBNEW 5.1.6-c6e7f7d~86~ubuntu18.04.1) date 2020-05-28 23:24:45*
%MOMM*%
%LPD*%
G01*
G04 APERTURE LIST*
%ADD10R,1.600000X1.300000*%
%ADD11R,1.700000X1.000000*%
%ADD12R,2.350000X0.800000*%
%ADD13R,0.500000X1.400000*%
%ADD14O,1.500000X4.000000*%
%ADD15R,1.500000X0.550000*%
%ADD16R,0.550000X1.500000*%
G04 APERTURE END LIST*
G36*
G01*
X313912500Y-40450001D02*
X313912500Y-39549999D01*
G75*
G02*
X314162499Y-39300000I249999J0D01*
G01*
X314812501Y-39300000D01*
G75*
G02*
X315062500Y-39549999I0J-249999D01*
G01*
X315062500Y-40450001D01*
G75*
G02*
X314812501Y-40700000I-249999J0D01*
G01*
X314162499Y-40700000D01*
G75*
G02*
X313912500Y-40450001I0J249999D01*
G01*
G37*
G36*
G01*
X315962500Y-40450001D02*
X315962500Y-39549999D01*
G75*
G02*
X316212499Y-39300000I249999J0D01*
G01*
X316862501Y-39300000D01*
G75*
G02*
X317112500Y-39549999I0J-249999D01*
G01*
X317112500Y-40450001D01*
G75*
G02*
X316862501Y-40700000I-249999J0D01*
G01*
X316212499Y-40700000D01*
G75*
G02*
X315962500Y-40450001I0J249999D01*
G01*
G37*
G36*
G01*
X323912500Y-40450001D02*
X323912500Y-39549999D01*
G75*
G02*
X324162499Y-39300000I249999J0D01*
G01*
X324812501Y-39300000D01*
G75*
G02*
X325062500Y-39549999I0J-249999D01*
G01*
X325062500Y-40450001D01*
G75*
G02*
X324812501Y-40700000I-249999J0D01*
G01*
X324162499Y-40700000D01*
G75*
G02*
X323912500Y-40450001I0J249999D01*
G01*
G37*
G36*
G01*
X325962500Y-40450001D02*
X325962500Y-39549999D01*
G75*
G02*
X326212499Y-39300000I249999J0D01*
G01*
X326862501Y-39300000D01*
G75*
G02*
X327112500Y-39549999I0J-249999D01*
G01*
X327112500Y-40450001D01*
G75*
G02*
X326862501Y-40700000I-249999J0D01*
G01*
X326212499Y-40700000D01*
G75*
G02*
X325962500Y-40450001I0J249999D01*
G01*
G37*
D10*
X318862500Y-39000000D03*
X322162500Y-39000000D03*
X322162500Y-41000000D03*
X318862500Y-41000000D03*
G36*
G01*
X322912500Y-15450001D02*
X322912500Y-14549999D01*
G75*
G02*
X323162499Y-14300000I249999J0D01*
G01*
X323812501Y-14300000D01*
G75*
G02*
X324062500Y-14549999I0J-249999D01*
G01*
X324062500Y-15450001D01*
G75*
G02*
X323812501Y-15700000I-249999J0D01*
G01*
X323162499Y-15700000D01*
G75*
G02*
X322912500Y-15450001I0J249999D01*
G01*
G37*
G36*
G01*
X324962500Y-15450001D02*
X324962500Y-14549999D01*
G75*
G02*
X325212499Y-14300000I249999J0D01*
G01*
X325862501Y-14300000D01*
G75*
G02*
X326112500Y-14549999I0J-249999D01*
G01*
X326112500Y-15450001D01*
G75*
G02*
X325862501Y-15700000I-249999J0D01*
G01*
X325212499Y-15700000D01*
G75*
G02*
X324962500Y-15450001I0J249999D01*
G01*
G37*
D11*
X321362500Y-11900000D03*
X327662500Y-11900000D03*
X321362500Y-8100000D03*
X327662500Y-8100000D03*
G36*
G01*
X333912500Y-28450001D02*
X333912500Y-27549999D01*
G75*
G02*
X334162499Y-27300000I249999J0D01*
G01*
X334812501Y-27300000D01*
G75*
G02*
X335062500Y-27549999I0J-249999D01*
G01*
X335062500Y-28450001D01*
G75*
G02*
X334812501Y-28700000I-249999J0D01*
G01*
X334162499Y-28700000D01*
G75*
G02*
X333912500Y-28450001I0J249999D01*
G01*
G37*
G36*
G01*
X335962500Y-28450001D02*
X335962500Y-27549999D01*
G75*
G02*
X336212499Y-27300000I249999J0D01*
G01*
X336862501Y-27300000D01*
G75*
G02*
X337112500Y-27549999I0J-249999D01*
G01*
X337112500Y-28450001D01*
G75*
G02*
X336862501Y-28700000I-249999J0D01*
G01*
X336212499Y-28700000D01*
G75*
G02*
X335962500Y-28450001I0J249999D01*
G01*
G37*
G36*
G01*
X313912500Y-28450001D02*
X313912500Y-27549999D01*
G75*
G02*
X314162499Y-27300000I249999J0D01*
G01*
X314812501Y-27300000D01*
G75*
G02*
X315062500Y-27549999I0J-249999D01*
G01*
X315062500Y-28450001D01*
G75*
G02*
X314812501Y-28700000I-249999J0D01*
G01*
X314162499Y-28700000D01*
G75*
G02*
X313912500Y-28450001I0J249999D01*
G01*
G37*
G36*
G01*
X315962500Y-28450001D02*
X315962500Y-27549999D01*
G75*
G02*
X316212499Y-27300000I249999J0D01*
G01*
X316862501Y-27300000D01*
G75*
G02*
X317112500Y-27549999I0J-249999D01*
G01*
X317112500Y-28450001D01*
G75*
G02*
X316862501Y-28700000I-249999J0D01*
G01*
X316212499Y-28700000D01*
G75*
G02*
X315962500Y-28450001I0J249999D01*
G01*
G37*
G36*
G01*
X313912500Y-32450001D02*
X313912500Y-31549999D01*
G75*
G02*
X314162499Y-31300000I249999J0D01*
G01*
X314812501Y-31300000D01*
G75*
G02*
X315062500Y-31549999I0J-249999D01*
G01*
X315062500Y-32450001D01*
G75*
G02*
X314812501Y-32700000I-249999J0D01*
G01*
X314162499Y-32700000D01*
G75*
G02*
X313912500Y-32450001I0J249999D01*
G01*
G37*
G36*
G01*
X315962500Y-32450001D02*
X315962500Y-31549999D01*
G75*
G02*
X316212499Y-31300000I249999J0D01*
G01*
X316862501Y-31300000D01*
G75*
G02*
X317112500Y-31549999I0J-249999D01*
G01*
X317112500Y-32450001D01*
G75*
G02*
X316862501Y-32700000I-249999J0D01*
G01*
X316212499Y-32700000D01*
G75*
G02*
X315962500Y-32450001I0J249999D01*
G01*
G37*
D12*
X167931250Y-19800000D03*
X162581250Y-19800000D03*
D13*
X163656250Y-25000000D03*
X164456250Y-25000000D03*
X165256250Y-25000000D03*
X166056250Y-25000000D03*
X166856250Y-25000000D03*
D14*
X161606250Y-22600000D03*
X168906250Y-22600000D03*
G36*
G01*
X313912500Y-25450001D02*
X313912500Y-24549999D01*
G75*
G02*
X314162499Y-24300000I249999J0D01*
G01*
X314812501Y-24300000D01*
G75*
G02*
X315062500Y-24549999I0J-249999D01*
G01*
X315062500Y-25450001D01*
G75*
G02*
X314812501Y-25700000I-249999J0D01*
G01*
X314162499Y-25700000D01*
G75*
G02*
X313912500Y-25450001I0J249999D01*
G01*
G37*
G36*
G01*
X315962500Y-25450001D02*
X315962500Y-24549999D01*
G75*
G02*
X316212499Y-24300000I249999J0D01*
G01*
X316862501Y-24300000D01*
G75*
G02*
X317112500Y-24549999I0J-249999D01*
G01*
X317112500Y-25450001D01*
G75*
G02*
X316862501Y-25700000I-249999J0D01*
G01*
X316212499Y-25700000D01*
G75*
G02*
X315962500Y-25450001I0J249999D01*
G01*
G37*
D15*
X318812500Y-29000000D03*
X318812500Y-28200000D03*
X318812500Y-27400000D03*
X318812500Y-26600000D03*
X318812500Y-25800000D03*
X318812500Y-25000000D03*
X318812500Y-24200000D03*
X318812500Y-23400000D03*
X318812500Y-22600000D03*
X318812500Y-21800000D03*
X318812500Y-21000000D03*
D16*
X320512500Y-19300000D03*
X321312500Y-19300000D03*
X322112500Y-19300000D03*
X322912500Y-19300000D03*
X323712500Y-19300000D03*
X324512500Y-19300000D03*
X325312500Y-19300000D03*
X326112500Y-19300000D03*
X326912500Y-19300000D03*
X327712500Y-19300000D03*
X328512500Y-19300000D03*
D15*
X330212500Y-21000000D03*
X330212500Y-21800000D03*
X330212500Y-22600000D03*
X330212500Y-23400000D03*
X330212500Y-24200000D03*
X330212500Y-25000000D03*
X330212500Y-25800000D03*
X330212500Y-26600000D03*
X330212500Y-27400000D03*
X330212500Y-28200000D03*
X330212500Y-29000000D03*
D16*
X328512500Y-30700000D03*
X327712500Y-30700000D03*
X326912500Y-30700000D03*
X326112500Y-30700000D03*
X325312500Y-30700000D03*
X324512500Y-30700000D03*
X323712500Y-30700000D03*
X322912500Y-30700000D03*
X322112500Y-30700000D03*
X321312500Y-30700000D03*
X320512500Y-30700000D03*
G36*
G01*
X313912500Y-50450001D02*
X313912500Y-49549999D01*
G75*
G02*
X314162499Y-49300000I249999J0D01*
G01*
X314812501Y-49300000D01*
G75*
G02*
X315062500Y-49549999I0J-249999D01*
G01*
X315062500Y-50450001D01*
G75*
G02*
X314812501Y-50700000I-249999J0D01*
G01*
X314162499Y-50700000D01*
G75*
G02*
X313912500Y-50450001I0J249999D01*
G01*
G37*
G36*
G01*
X315962500Y-50450001D02*
X315962500Y-49549999D01*
G75*
G02*
X316212499Y-49300000I249999J0D01*
G01*
X316862501Y-49300000D01*
G75*
G02*
X317112500Y-49549999I0J-249999D01*
G01*
X317112500Y-50450001D01*
G75*
G02*
X316862501Y-50700000I-249999J0D01*
G01*
X316212499Y-50700000D01*
G75*
G02*
X315962500Y-50450001I0J249999D01*
G01*
G37*
G36*
G01*
X318912500Y-50450001D02*
X318912500Y-49549999D01*
G75*
G02*
X319162499Y-49300000I249999J0D01*
G01*
X319812501Y-49300000D01*
G75*
G02*
X320062500Y-49549999I0J-249999D01*
G01*
X320062500Y-50450001D01*
G75*
G02*
X319812501Y-50700000I-249999J0D01*
G01*
X319162499Y-50700000D01*
G75*
G02*
X318912500Y-50450001I0J249999D01*
G01*
G37*
G36*
G01*
X320962500Y-50450001D02*
X320962500Y-49549999D01*
G75*
G02*
X321212499Y-49300000I249999J0D01*
G01*
X321862501Y-49300000D01*
G75*
G02*
X322112500Y-49549999I0J-249999D01*
G01*
X322112500Y-50450001D01*
G75*
G02*
X321862501Y-50700000I-249999J0D01*
G01*
X321212499Y-50700000D01*
G75*
G02*
X320962500Y-50450001I0J249999D01*
G01*
G37*
G36*
G01*
X323912500Y-50450001D02*
X323912500Y-49549999D01*
G75*
G02*
X324162499Y-49300000I249999J0D01*
G01*
X324812501Y-49300000D01*
G75*
G02*
X325062500Y-49549999I0J-249999D01*
G01*
X325062500Y-50450001D01*
G75*
G02*
X324812501Y-50700000I-249999J0D01*
G01*
X324162499Y-50700000D01*
G75*
G02*
X323912500Y-50450001I0J249999D01*
G01*
G37*
G36*
G01*
X325962500Y-50450001D02*
X325962500Y-49549999D01*
G75*
G02*
X326212499Y-49300000I249999J0D01*
G01*
X326862501Y-49300000D01*
G75*
G02*
X327112500Y-49549999I0J-249999D01*
G01*
X327112500Y-50450001D01*
G75*
G02*
X326862501Y-50700000I-249999J0D01*
G01*
X326212499Y-50700000D01*
G75*
G02*
X325962500Y-50450001I0J249999D01*
G01*
G37*
G36*
G01*
X328912500Y-50450001D02*
X328912500Y-49549999D01*
G75*
G02*
X329162499Y-49300000I249999J0D01*
G01*
X329812501Y-49300000D01*
G75*
G02*
X330062500Y-49549999I0J-249999D01*
G01*
X330062500Y-50450001D01*
G75*
G02*
X329812501Y-50700000I-249999J0D01*
G01*
X329162499Y-50700000D01*
G75*
G02*
X328912500Y-50450001I0J249999D01*
G01*
G37*
G36*
G01*
X330962500Y-50450001D02*
X330962500Y-49549999D01*
G75*
G02*
X331212499Y-49300000I249999J0D01*
G01*
X331862501Y-49300000D01*
G75*
G02*
X332112500Y-49549999I0J-249999D01*
G01*
X332112500Y-50450001D01*
G75*
G02*
X331862501Y-50700000I-249999J0D01*
G01*
X331212499Y-50700000D01*
G75*
G02*
X330962500Y-50450001I0J249999D01*
G01*
G37*
M02*
