G04 #@! TF.GenerationSoftware,KiCad,Pcbnew,5.1.6-c6e7f7d~86~ubuntu18.04.1*
G04 #@! TF.CreationDate,2020-05-28T23:24:45+02:00*
G04 #@! TF.ProjectId,keyboard-layout,6b657962-6f61-4726-942d-6c61796f7574,rev?*
G04 #@! TF.SameCoordinates,Original*
G04 #@! TF.FileFunction,Paste,Top*
G04 #@! TF.FilePolarity,Positive*
%FSLAX46Y46*%
G04 Gerber Fmt 4.6, Leading zero omitted, Abs format (unit mm)*
G04 Created by KiCad (PCBNEW 5.1.6-c6e7f7d~86~ubuntu18.04.1) date 2020-05-28 23:24:45*
%MOMM*%
%LPD*%
G01*
G04 APERTURE LIST*
%ADD10R,1.200000X1.200000*%
G04 APERTURE END LIST*
D10*
X20500000Y-31600000D03*
X20500000Y-28450000D03*
X39550000Y-31600000D03*
X39550000Y-28450000D03*
X58600000Y-31600000D03*
X58600000Y-28450000D03*
X77650000Y-31600000D03*
X77650000Y-28450000D03*
X96700000Y-31600000D03*
X96700000Y-28450000D03*
X115750000Y-31600000D03*
X115750000Y-28450000D03*
X134800000Y-31600000D03*
X134800000Y-28450000D03*
X153850000Y-31600000D03*
X153850000Y-28450000D03*
X172900000Y-31600000D03*
X172900000Y-28450000D03*
X191950000Y-31600000D03*
X191950000Y-28450000D03*
X211000000Y-31600000D03*
X211000000Y-28450000D03*
X230050000Y-31600000D03*
X230050000Y-28450000D03*
X249100000Y-31600000D03*
X249100000Y-28450000D03*
X268150000Y-31600000D03*
X268150000Y-28450000D03*
X20500000Y-50650000D03*
X20500000Y-47500000D03*
X49075000Y-50650000D03*
X49075000Y-47500000D03*
X68125000Y-50650000D03*
X68125000Y-47500000D03*
X87175000Y-50650000D03*
X87175000Y-47500000D03*
X106225000Y-50650000D03*
X106225000Y-47500000D03*
X125275000Y-50650000D03*
X125275000Y-47500000D03*
X144325000Y-50650000D03*
X144325000Y-47500000D03*
X163375000Y-50650000D03*
X163375000Y-47500000D03*
X182425000Y-50650000D03*
X182425000Y-47500000D03*
X201475000Y-50650000D03*
X201475000Y-47500000D03*
X220525000Y-50650000D03*
X220525000Y-47500000D03*
X239575000Y-50650000D03*
X239575000Y-47500000D03*
X258625000Y-50650000D03*
X258625000Y-47500000D03*
X272912500Y-60175000D03*
X272912500Y-57025000D03*
X20500000Y-69700000D03*
X20500000Y-66550000D03*
X53837500Y-69700000D03*
X53837500Y-66550000D03*
X72887500Y-69700000D03*
X72887500Y-66550000D03*
X91937500Y-69700000D03*
X91937500Y-66550000D03*
X110987500Y-69700000D03*
X110987500Y-66550000D03*
X130037500Y-69700000D03*
X130037500Y-66550000D03*
X149087500Y-69700000D03*
X149087500Y-66550000D03*
X168137500Y-69700000D03*
X168137500Y-66550000D03*
X187187500Y-69700000D03*
X187187500Y-66550000D03*
X206237500Y-69700000D03*
X206237500Y-66550000D03*
X225287500Y-69700000D03*
X225287500Y-66550000D03*
X244337500Y-69700000D03*
X244337500Y-66550000D03*
X263387500Y-69700000D03*
X263387500Y-66550000D03*
X20500000Y-88750000D03*
X20500000Y-85600000D03*
X44312500Y-88750000D03*
X44312500Y-85600000D03*
X63362500Y-88750000D03*
X63362500Y-85600000D03*
X82412500Y-88750000D03*
X82412500Y-85600000D03*
X101462500Y-88750000D03*
X101462500Y-85600000D03*
X120512500Y-88750000D03*
X120512500Y-85600000D03*
X139562500Y-88750000D03*
X139562500Y-85600000D03*
X158612500Y-88750000D03*
X158612500Y-85600000D03*
X177662500Y-88750000D03*
X177662500Y-85600000D03*
X196712500Y-88750000D03*
X196712500Y-85600000D03*
X215762500Y-88750000D03*
X215762500Y-85600000D03*
X234812500Y-88750000D03*
X234812500Y-85600000D03*
X253862500Y-88750000D03*
X253862500Y-85600000D03*
X20500000Y-107800000D03*
X20500000Y-104650000D03*
X44312500Y-107800000D03*
X44312500Y-104650000D03*
X68125000Y-107800000D03*
X68125000Y-104650000D03*
X91937500Y-107800000D03*
X91937500Y-104650000D03*
X211000000Y-107800000D03*
X211000000Y-104650000D03*
X234812500Y-107800000D03*
X234812500Y-104650000D03*
X258625000Y-107800000D03*
X258625000Y-104650000D03*
X282437500Y-107800000D03*
X282437500Y-104650000D03*
M02*
