%TF.GenerationSoftware,KiCad,Pcbnew,5.1.6-c6e7f7d~86~ubuntu18.04.1*%
%TF.CreationDate,2020-05-28T23:24:40+02:00*%
%TF.ProjectId,keyboard-layout,6b657962-6f61-4726-942d-6c61796f7574,rev?*%
%TF.SameCoordinates,Original*%
%TF.FileFunction,Plated,1,2,PTH,Mixed*%
%TF.FilePolarity,Positive*%
%FSLAX46Y46*%
G04 Gerber Fmt 4.6, Leading zero omitted, Abs format (unit mm)*
G04 Created by KiCad (PCBNEW 5.1.6-c6e7f7d~86~ubuntu18.04.1) date 2020-05-28 23:24:40*
%MOMM*%
%LPD*%
G01*
G04 APERTURE LIST*
G04 aperture for slot hole*
%TA.AperFunction,ComponentDrill*%
%ADD10C,0.700000*%
%TD*%
%TA.AperFunction,ComponentDrill*%
%ADD11C,0.700000*%
%TD*%
%TA.AperFunction,ComponentDrill*%
%ADD12C,1.040000*%
%TD*%
%TA.AperFunction,ComponentDrill*%
%ADD13C,1.470000*%
%TD*%
G04 APERTURE END LIST*
D10*
%TO.C,USB3*%
X161606250Y-23850000D02*
X161606250Y-21350000D01*
X168906250Y-23850000D02*
X168906250Y-21350000D01*
D11*
%TO.C,D_[*%
X239575000Y-45175000D03*
X239575000Y-52975000D03*
%TO.C,D_EQUAL*%
X249100000Y-26125000D03*
X249100000Y-33925000D03*
%TO.C,D_]*%
X258625000Y-45175000D03*
X258625000Y-52975000D03*
%TO.C,D_BACKSPACE*%
X268150000Y-26125000D03*
X268150000Y-33925000D03*
%TO.C,D_Y*%
X144325000Y-45175000D03*
X144325000Y-52975000D03*
%TO.C,D_A*%
X53837500Y-64225000D03*
X53837500Y-72025000D03*
%TO.C,D_C*%
X101462500Y-83275000D03*
X101462500Y-91075000D03*
%TO.C,D_ENTER*%
X272912500Y-54700000D03*
X272912500Y-62500000D03*
%TO.C,D_ALTGR*%
X211000000Y-102325000D03*
X211000000Y-110125000D03*
%TO.C,D_9*%
X191950000Y-26125000D03*
X191950000Y-33925000D03*
%TO.C,D_CAPS_LOCK*%
X20500000Y-64225000D03*
X20500000Y-72025000D03*
%TO.C,D_E*%
X87175000Y-45175000D03*
X87175000Y-52975000D03*
%TO.C,D_WIN1*%
X234812500Y-102325000D03*
X234812500Y-110125000D03*
%TO.C,D_MENU*%
X258625000Y-102325000D03*
X258625000Y-110125000D03*
%TO.C,D_CTRL1*%
X282437500Y-102325000D03*
X282437500Y-110125000D03*
%TO.C,D_0*%
X211000000Y-26125000D03*
X211000000Y-33925000D03*
%TO.C,D_T*%
X125275000Y-45175000D03*
X125275000Y-52975000D03*
%TO.C,D_J*%
X168137500Y-64225000D03*
X168137500Y-72025000D03*
%TO.C,D_2*%
X58600000Y-26125000D03*
X58600000Y-33925000D03*
%TO.C,D_*%
X91937500Y-102325000D03*
X91937500Y-110125000D03*
%TO.C,D_5*%
X115750000Y-26125000D03*
X115750000Y-33925000D03*
%TO.C,D_P*%
X220525000Y-45175000D03*
X220525000Y-52975000D03*
%TO.C,D_H*%
X149087500Y-64225000D03*
X149087500Y-72025000D03*
%TO.C,D_X*%
X82412500Y-83275000D03*
X82412500Y-91075000D03*
%TO.C,D_SHIFT1*%
X253862500Y-83275000D03*
X253862500Y-91075000D03*
%TO.C,D_G*%
X130037500Y-64225000D03*
X130037500Y-72025000D03*
%TO.C,D_6*%
X134800000Y-26125000D03*
X134800000Y-33925000D03*
%TO.C,D_O*%
X201475000Y-45175000D03*
X201475000Y-52975000D03*
%TO.C,D_W*%
X68125000Y-45175000D03*
X68125000Y-52975000D03*
%TO.C,D_`*%
X20500000Y-26125000D03*
X20500000Y-33925000D03*
%TO.C,D_M*%
X177662500Y-83275000D03*
X177662500Y-91075000D03*
%TO.C,D_Z*%
X63362500Y-83275000D03*
X63362500Y-91075000D03*
%TO.C,D_F*%
X110987500Y-64225000D03*
X110987500Y-72025000D03*
%TO.C,D_COMMA*%
X196712500Y-83275000D03*
X196712500Y-91075000D03*
%TO.C,D_CTRL*%
X20500000Y-102325000D03*
X20500000Y-110125000D03*
%TO.C,D_3*%
X77650000Y-26125000D03*
X77650000Y-33925000D03*
%TO.C,D_8*%
X172900000Y-26125000D03*
X172900000Y-33925000D03*
%TO.C,D_I*%
X182425000Y-45175000D03*
X182425000Y-52975000D03*
%TO.C,D_SHIFT*%
X20500000Y-83275000D03*
X20500000Y-91075000D03*
%TO.C,D_BSLSH*%
X44312500Y-83275000D03*
X44312500Y-91075000D03*
%TO.C,D_DOT*%
X215762500Y-83275000D03*
X215762500Y-91075000D03*
%TO.C,D_N*%
X158612500Y-83275000D03*
X158612500Y-91075000D03*
%TO.C,D_#*%
X263387500Y-64225000D03*
X263387500Y-72025000D03*
%TO.C,D_QUOTE*%
X244337500Y-64225000D03*
X244337500Y-72025000D03*
%TO.C,D_Q*%
X49075000Y-45175000D03*
X49075000Y-52975000D03*
%TO.C,D_WIN*%
X44312500Y-102325000D03*
X44312500Y-110125000D03*
%TO.C,D_U*%
X163375000Y-45175000D03*
X163375000Y-52975000D03*
%TO.C,D_L*%
X206237500Y-64225000D03*
X206237500Y-72025000D03*
%TO.C,D_7*%
X153850000Y-26125000D03*
X153850000Y-33925000D03*
%TO.C,D_ALT*%
X68125000Y-102325000D03*
X68125000Y-110125000D03*
%TO.C,D_D*%
X91937500Y-64225000D03*
X91937500Y-72025000D03*
%TO.C,D_B*%
X139562500Y-83275000D03*
X139562500Y-91075000D03*
%TO.C,D_SEMIC*%
X225287500Y-64225000D03*
X225287500Y-72025000D03*
%TO.C,D_TAB*%
X20500000Y-45175000D03*
X20500000Y-52975000D03*
%TO.C,D_R*%
X106225000Y-45175000D03*
X106225000Y-52975000D03*
%TO.C,D_S*%
X72887500Y-64225000D03*
X72887500Y-72025000D03*
%TO.C,D_1*%
X39550000Y-26125000D03*
X39550000Y-33925000D03*
%TO.C,D_4*%
X96700000Y-26125000D03*
X96700000Y-33925000D03*
%TO.C,D_V*%
X120512500Y-83275000D03*
X120512500Y-91075000D03*
%TO.C,D_MINUS*%
X230050000Y-26125000D03*
X230050000Y-33925000D03*
%TO.C,D_SLASH*%
X234812500Y-83275000D03*
X234812500Y-91075000D03*
%TO.C,D_K*%
X187187500Y-64225000D03*
X187187500Y-72025000D03*
D12*
%TO.C,K_9*%
X199705000Y-34605000D03*
X202245000Y-34605000D03*
%TO.C,K_#*%
X271142500Y-72705000D03*
X273682500Y-72705000D03*
%TO.C,K_SLASH*%
X242567500Y-91755000D03*
X245107500Y-91755000D03*
%TO.C,K_D*%
X99692500Y-72705000D03*
X102232500Y-72705000D03*
%TO.C,K_ALT*%
X78261250Y-110805000D03*
X80801250Y-110805000D03*
%TO.C,K_B*%
X147317500Y-91755000D03*
X149857500Y-91755000D03*
%TO.C,K_L*%
X213992500Y-72705000D03*
X216532500Y-72705000D03*
%TO.C,K_TAB*%
X33017500Y-53655000D03*
X35557500Y-53655000D03*
%TO.C,K_Q*%
X56830000Y-53655000D03*
X59370000Y-53655000D03*
%TO.C,K_]*%
X266380000Y-53655000D03*
X268920000Y-53655000D03*
%TO.C,K_ENTER*%
X286382500Y-56830000D03*
X286382500Y-59370000D03*
%TO.C,K_A*%
X61592500Y-72705000D03*
X64132500Y-72705000D03*
%TO.C,K_U*%
X171130000Y-53655000D03*
X173670000Y-53655000D03*
%TO.C,K_S*%
X80642500Y-72705000D03*
X83182500Y-72705000D03*
%TO.C,K_EQUAL*%
X256855000Y-34605000D03*
X259395000Y-34605000D03*
%TO.C,K_V*%
X128267500Y-91755000D03*
X130807500Y-91755000D03*
%TO.C,K_SHIFT1*%
X278286250Y-91755000D03*
X280826250Y-91755000D03*
%TO.C,K_3*%
X85405000Y-34605000D03*
X87945000Y-34605000D03*
%TO.C,K_8*%
X180655000Y-34605000D03*
X183195000Y-34605000D03*
%TO.C,K_*%
X149698750Y-110805000D03*
X152238750Y-110805000D03*
%TO.C,K_R*%
X113980000Y-53655000D03*
X116520000Y-53655000D03*
%TO.C,K_2*%
X66355000Y-34605000D03*
X68895000Y-34605000D03*
%TO.C,K_6*%
X142555000Y-34605000D03*
X145095000Y-34605000D03*
%TO.C,K_MINUS*%
X237805000Y-34605000D03*
X240345000Y-34605000D03*
%TO.C,K_K*%
X194942500Y-72705000D03*
X197482500Y-72705000D03*
%TO.C,K_ALTGR*%
X221136250Y-110805000D03*
X223676250Y-110805000D03*
%TO.C,K_WIN1*%
X244948750Y-110805000D03*
X247488750Y-110805000D03*
%TO.C,K_BACKSPACE*%
X285430000Y-34605000D03*
X287970000Y-34605000D03*
%TO.C,K_[*%
X247330000Y-53655000D03*
X249870000Y-53655000D03*
%TO.C,K_0*%
X218755000Y-34605000D03*
X221295000Y-34605000D03*
%TO.C,K_J*%
X175892500Y-72705000D03*
X178432500Y-72705000D03*
%TO.C,K_7*%
X161605000Y-34605000D03*
X164145000Y-34605000D03*
%TO.C,K_Y*%
X152080000Y-53655000D03*
X154620000Y-53655000D03*
%TO.C,K_C*%
X109217500Y-91755000D03*
X111757500Y-91755000D03*
%TO.C,K_CAPS_LOCK*%
X35398750Y-72705000D03*
X37938750Y-72705000D03*
%TO.C,K_MENU*%
X268761250Y-110805000D03*
X271301250Y-110805000D03*
%TO.C,K_CTRL1*%
X292573750Y-110805000D03*
X295113750Y-110805000D03*
%TO.C,K_H*%
X156842500Y-72705000D03*
X159382500Y-72705000D03*
%TO.C,K_`*%
X28255000Y-34605000D03*
X30795000Y-34605000D03*
%TO.C,K_E*%
X94930000Y-53655000D03*
X97470000Y-53655000D03*
%TO.C,K_COMMA*%
X204467500Y-91755000D03*
X207007500Y-91755000D03*
%TO.C,K_CTRL*%
X30636250Y-110805000D03*
X33176250Y-110805000D03*
%TO.C,K_T*%
X133030000Y-53655000D03*
X135570000Y-53655000D03*
%TO.C,K_X*%
X90167500Y-91755000D03*
X92707500Y-91755000D03*
%TO.C,K_P*%
X228280000Y-53655000D03*
X230820000Y-53655000D03*
%TO.C,K_G*%
X137792500Y-72705000D03*
X140332500Y-72705000D03*
%TO.C,K_5*%
X123505000Y-34605000D03*
X126045000Y-34605000D03*
%TO.C,K_1*%
X47305000Y-34605000D03*
X49845000Y-34605000D03*
%TO.C,K_SHIFT*%
X30636250Y-91755000D03*
X33176250Y-91755000D03*
%TO.C,K_DOT*%
X223517500Y-91755000D03*
X226057500Y-91755000D03*
%TO.C,K_WIN*%
X54448750Y-110805000D03*
X56988750Y-110805000D03*
%TO.C,K_O*%
X209230000Y-53655000D03*
X211770000Y-53655000D03*
%TO.C,K_QUOTE*%
X252092500Y-72705000D03*
X254632500Y-72705000D03*
%TO.C,K_W*%
X75880000Y-53655000D03*
X78420000Y-53655000D03*
%TO.C,K_M*%
X185417500Y-91755000D03*
X187957500Y-91755000D03*
%TO.C,K_4*%
X104455000Y-34605000D03*
X106995000Y-34605000D03*
%TO.C,K_BSLSH*%
X52067500Y-91755000D03*
X54607500Y-91755000D03*
%TO.C,K_Z*%
X71117500Y-91755000D03*
X73657500Y-91755000D03*
%TO.C,K_I*%
X190180000Y-53655000D03*
X192720000Y-53655000D03*
%TO.C,K_SEMIC*%
X233042500Y-72705000D03*
X235582500Y-72705000D03*
%TO.C,K_F*%
X118742500Y-72705000D03*
X121282500Y-72705000D03*
%TO.C,K_N*%
X166367500Y-91755000D03*
X168907500Y-91755000D03*
D13*
%TO.C,K_E*%
X92390000Y-46035000D03*
X93700000Y-44575000D03*
X98700000Y-44075000D03*
X98740000Y-43495000D03*
%TO.C,K_COMMA*%
X201927500Y-84135000D03*
X203237500Y-82675000D03*
X208237500Y-82175000D03*
X208277500Y-81595000D03*
%TO.C,K_CTRL*%
X28096250Y-103185000D03*
X29406250Y-101725000D03*
X34406250Y-101225000D03*
X34446250Y-100645000D03*
%TO.C,K_T*%
X130490000Y-46035000D03*
X131800000Y-44575000D03*
X136800000Y-44075000D03*
X136840000Y-43495000D03*
%TO.C,K_X*%
X87627500Y-84135000D03*
X88937500Y-82675000D03*
X93937500Y-82175000D03*
X93977500Y-81595000D03*
%TO.C,K_P*%
X225740000Y-46035000D03*
X227050000Y-44575000D03*
X232050000Y-44075000D03*
X232090000Y-43495000D03*
%TO.C,K_G*%
X135252500Y-65085000D03*
X136562500Y-63625000D03*
X141562500Y-63125000D03*
X141602500Y-62545000D03*
%TO.C,K_5*%
X120965000Y-26985000D03*
X122275000Y-25525000D03*
X127275000Y-25025000D03*
X127315000Y-24445000D03*
%TO.C,K_1*%
X44765000Y-26985000D03*
X46075000Y-25525000D03*
X51075000Y-25025000D03*
X51115000Y-24445000D03*
%TO.C,K_SHIFT*%
X28096250Y-84135000D03*
X29406250Y-82675000D03*
X34406250Y-82175000D03*
X34446250Y-81595000D03*
%TO.C,K_DOT*%
X220977500Y-84135000D03*
X222287500Y-82675000D03*
X227287500Y-82175000D03*
X227327500Y-81595000D03*
%TO.C,K_WIN*%
X51908750Y-103185000D03*
X53218750Y-101725000D03*
X58218750Y-101225000D03*
X58258750Y-100645000D03*
%TO.C,K_O*%
X206690000Y-46035000D03*
X208000000Y-44575000D03*
X213000000Y-44075000D03*
X213040000Y-43495000D03*
%TO.C,K_QUOTE*%
X249552500Y-65085000D03*
X250862500Y-63625000D03*
X255862500Y-63125000D03*
X255902500Y-62545000D03*
%TO.C,K_W*%
X73340000Y-46035000D03*
X74650000Y-44575000D03*
X79650000Y-44075000D03*
X79690000Y-43495000D03*
%TO.C,K_M*%
X182877500Y-84135000D03*
X184187500Y-82675000D03*
X189187500Y-82175000D03*
X189227500Y-81595000D03*
%TO.C,K_4*%
X101915000Y-26985000D03*
X103225000Y-25525000D03*
X108225000Y-25025000D03*
X108265000Y-24445000D03*
%TO.C,K_BSLSH*%
X49527500Y-84135000D03*
X50837500Y-82675000D03*
X55837500Y-82175000D03*
X55877500Y-81595000D03*
%TO.C,K_Z*%
X68577500Y-84135000D03*
X69887500Y-82675000D03*
X74887500Y-82175000D03*
X74927500Y-81595000D03*
%TO.C,K_I*%
X187640000Y-46035000D03*
X188950000Y-44575000D03*
X193950000Y-44075000D03*
X193990000Y-43495000D03*
%TO.C,K_SEMIC*%
X230502500Y-65085000D03*
X231812500Y-63625000D03*
X236812500Y-63125000D03*
X236852500Y-62545000D03*
%TO.C,K_F*%
X116202500Y-65085000D03*
X117512500Y-63625000D03*
X122512500Y-63125000D03*
X122552500Y-62545000D03*
%TO.C,K_N*%
X163827500Y-84135000D03*
X165137500Y-82675000D03*
X170137500Y-82175000D03*
X170177500Y-81595000D03*
%TO.C,K_9*%
X197165000Y-26985000D03*
X198475000Y-25525000D03*
X203475000Y-25025000D03*
X203515000Y-24445000D03*
%TO.C,K_#*%
X268602500Y-65085000D03*
X269912500Y-63625000D03*
X274912500Y-63125000D03*
X274952500Y-62545000D03*
%TO.C,K_SLASH*%
X240027500Y-84135000D03*
X241337500Y-82675000D03*
X246337500Y-82175000D03*
X246377500Y-81595000D03*
%TO.C,K_D*%
X97152500Y-65085000D03*
X98462500Y-63625000D03*
X103462500Y-63125000D03*
X103502500Y-62545000D03*
%TO.C,K_ALT*%
X75721250Y-103185000D03*
X77031250Y-101725000D03*
X82031250Y-101225000D03*
X82071250Y-100645000D03*
%TO.C,K_B*%
X144777500Y-84135000D03*
X146087500Y-82675000D03*
X151087500Y-82175000D03*
X151127500Y-81595000D03*
%TO.C,K_L*%
X211452500Y-65085000D03*
X212762500Y-63625000D03*
X217762500Y-63125000D03*
X217802500Y-62545000D03*
%TO.C,K_TAB*%
X30477500Y-46035000D03*
X31787500Y-44575000D03*
X36787500Y-44075000D03*
X36827500Y-43495000D03*
%TO.C,K_Q*%
X54290000Y-46035000D03*
X55600000Y-44575000D03*
X60600000Y-44075000D03*
X60640000Y-43495000D03*
%TO.C,K_]*%
X263840000Y-46035000D03*
X265150000Y-44575000D03*
X270150000Y-44075000D03*
X270190000Y-43495000D03*
%TO.C,K_ENTER*%
X294002500Y-54290000D03*
X295462500Y-55600000D03*
X295962500Y-60600000D03*
X296542500Y-60640000D03*
%TO.C,K_A*%
X59052500Y-65085000D03*
X60362500Y-63625000D03*
X65362500Y-63125000D03*
X65402500Y-62545000D03*
%TO.C,K_U*%
X168590000Y-46035000D03*
X169900000Y-44575000D03*
X174900000Y-44075000D03*
X174940000Y-43495000D03*
%TO.C,K_S*%
X78102500Y-65085000D03*
X79412500Y-63625000D03*
X84412500Y-63125000D03*
X84452500Y-62545000D03*
%TO.C,K_EQUAL*%
X254315000Y-26985000D03*
X255625000Y-25525000D03*
X260625000Y-25025000D03*
X260665000Y-24445000D03*
%TO.C,K_V*%
X125727500Y-84135000D03*
X127037500Y-82675000D03*
X132037500Y-82175000D03*
X132077500Y-81595000D03*
%TO.C,K_SHIFT1*%
X275746250Y-84135000D03*
X277056250Y-82675000D03*
X282056250Y-82175000D03*
X282096250Y-81595000D03*
%TO.C,K_3*%
X82865000Y-26985000D03*
X84175000Y-25525000D03*
X89175000Y-25025000D03*
X89215000Y-24445000D03*
%TO.C,K_8*%
X178115000Y-26985000D03*
X179425000Y-25525000D03*
X184425000Y-25025000D03*
X184465000Y-24445000D03*
%TO.C,K_*%
X147158750Y-103185000D03*
X148468750Y-101725000D03*
X153468750Y-101225000D03*
X153508750Y-100645000D03*
%TO.C,K_R*%
X111440000Y-46035000D03*
X112750000Y-44575000D03*
X117750000Y-44075000D03*
X117790000Y-43495000D03*
%TO.C,K_2*%
X63815000Y-26985000D03*
X65125000Y-25525000D03*
X70125000Y-25025000D03*
X70165000Y-24445000D03*
%TO.C,K_6*%
X140015000Y-26985000D03*
X141325000Y-25525000D03*
X146325000Y-25025000D03*
X146365000Y-24445000D03*
%TO.C,K_MINUS*%
X235265000Y-26985000D03*
X236575000Y-25525000D03*
X241575000Y-25025000D03*
X241615000Y-24445000D03*
%TO.C,K_K*%
X192402500Y-65085000D03*
X193712500Y-63625000D03*
X198712500Y-63125000D03*
X198752500Y-62545000D03*
%TO.C,K_ALTGR*%
X218596250Y-103185000D03*
X219906250Y-101725000D03*
X224906250Y-101225000D03*
X224946250Y-100645000D03*
%TO.C,K_WIN1*%
X242408750Y-103185000D03*
X243718750Y-101725000D03*
X248718750Y-101225000D03*
X248758750Y-100645000D03*
%TO.C,K_BACKSPACE*%
X282890000Y-26985000D03*
X284200000Y-25525000D03*
X289200000Y-25025000D03*
X289240000Y-24445000D03*
%TO.C,K_[*%
X244790000Y-46035000D03*
X246100000Y-44575000D03*
X251100000Y-44075000D03*
X251140000Y-43495000D03*
%TO.C,K_0*%
X216215000Y-26985000D03*
X217525000Y-25525000D03*
X222525000Y-25025000D03*
X222565000Y-24445000D03*
%TO.C,K_J*%
X173352500Y-65085000D03*
X174662500Y-63625000D03*
X179662500Y-63125000D03*
X179702500Y-62545000D03*
%TO.C,K_7*%
X159065000Y-26985000D03*
X160375000Y-25525000D03*
X165375000Y-25025000D03*
X165415000Y-24445000D03*
%TO.C,K_Y*%
X149540000Y-46035000D03*
X150850000Y-44575000D03*
X155850000Y-44075000D03*
X155890000Y-43495000D03*
%TO.C,K_C*%
X106677500Y-84135000D03*
X107987500Y-82675000D03*
X112987500Y-82175000D03*
X113027500Y-81595000D03*
%TO.C,K_CAPS_LOCK*%
X32858750Y-65085000D03*
X34168750Y-63625000D03*
X39168750Y-63125000D03*
X39208750Y-62545000D03*
%TO.C,K_MENU*%
X266221250Y-103185000D03*
X267531250Y-101725000D03*
X272531250Y-101225000D03*
X272571250Y-100645000D03*
%TO.C,K_CTRL1*%
X290033750Y-103185000D03*
X291343750Y-101725000D03*
X296343750Y-101225000D03*
X296383750Y-100645000D03*
%TO.C,K_H*%
X154302500Y-65085000D03*
X155612500Y-63625000D03*
X160612500Y-63125000D03*
X160652500Y-62545000D03*
%TO.C,K_`*%
X25715000Y-26985000D03*
X27025000Y-25525000D03*
X32025000Y-25025000D03*
X32065000Y-24445000D03*
M02*
